<svg width="157" height="120" viewBox="0 0 157 120" fill="none" xmlns="http://www.w3.org/2000/svg">
<path d="M88.6334 0.974515C87.3897 1.39483 86.3947 1.72174 86.345 1.76844C86.345 1.76844 86.544 4.43043 86.8425 7.65284L87.3897 13.4905L89.4792 13.3971C92.2154 13.3037 93.8571 12.5098 93.1108 11.6225C92.6631 11.1555 92.2154 11.1088 91.0711 11.4824C89.2802 12.0428 89.2802 12.0428 89.0314 9.98792C88.8822 8.49347 89.0314 8.30666 90.5239 7.88635C92.7129 7.27923 92.5139 5.97158 90.2254 6.15839C88.6832 6.2985 88.6334 6.2985 88.6334 4.43043C88.6334 2.65577 88.7329 2.56237 90.4244 2.23546C91.6184 2.04865 92.1159 1.72174 92.0164 1.20802C91.8174 0.180588 91.1706 0.133887 88.6334 0.974515Z" fill="black"/>
<path d="M77.1911 8.3534C76.2459 10.5484 75.3504 12.323 75.2012 12.323C75.0519 12.323 73.9575 10.922 72.8132 9.24073C71.6192 7.51277 70.475 6.34523 70.2263 6.53204C69.7288 7.09246 67.0921 18.3942 67.4403 18.7212C68.3358 19.5618 69.1815 18.0673 69.9775 14.2378C70.475 11.9027 70.9228 9.98795 71.0223 9.98795C71.1218 9.98795 72.1167 11.2489 73.2112 12.79C74.3554 14.3312 75.4499 15.4987 75.6489 15.4053C75.8479 15.2652 76.6439 13.6774 77.3901 11.9027C78.1364 10.0814 78.9324 8.4935 79.1314 8.3534C79.3801 8.25999 80.2756 9.70774 81.2208 11.6225C82.3651 14.0043 83.2108 15.0784 83.8078 15.1251C84.2555 15.1251 84.6535 14.9383 84.6535 14.7048C84.6535 14.0043 79.6289 4.38376 79.2309 4.38376C79.0816 4.38376 78.1364 6.15842 77.1911 8.3534Z" fill="black"/>
<path d="M57.4407 9.10064C54.406 10.922 52.7643 14.7515 53.809 17.6937C54.9533 20.9161 58.386 22.0837 62.0674 20.4491C65.9976 18.6745 67.6393 12.5099 64.9528 9.56766C63.8584 8.30671 63.3111 8.11991 61.3709 8.11991C59.8784 8.11991 58.4357 8.49352 57.4407 9.10064ZM63.2614 10.455C64.0076 11.1555 64.2563 11.9961 64.2563 13.7241C64.2563 15.7323 64.0076 16.2927 62.6644 17.6937C59.7292 20.6359 56.396 20.1689 55.5005 16.713C54.9533 14.7515 56.6945 11.4357 58.7839 10.4083C60.9729 9.28745 62.0176 9.28745 63.2614 10.455Z" fill="black"/>
<path d="M48.7346 11.3423C43.0632 14.7048 41.4215 20.0288 45.3517 22.4573C47.1427 23.6248 48.6351 23.7649 51.4708 23.0177C52.8638 22.6908 53.3115 22.3172 53.212 21.7568C53.0628 21.3365 52.6648 21.0562 52.2668 21.1496C50.4758 21.6634 47.3417 21.7101 46.3964 21.2431C45.6502 20.8227 45.3517 20.2623 45.3517 19.0014C45.3517 16.7597 46.8939 14.518 49.5804 12.9302C51.9683 11.5291 52.0181 11.4824 51.4211 10.5951C51.1226 10.1281 50.4261 10.3149 48.7346 11.3423Z" fill="black"/>
<path d="M35.7501 15.919C35.8496 17.18 36.0984 19.842 36.2974 21.8969C36.6954 26.1 36.8944 26.2868 40.327 25.3995C41.6205 25.0726 42.3668 24.6055 42.3668 24.1385C42.3668 23.5314 42.0185 23.4847 40.4265 23.7182L38.5361 23.9984L38.1878 21.8501C38.0386 20.6359 37.8893 18.6744 37.8893 17.4135C37.8893 14.6581 37.5411 13.7241 36.3969 13.7241C35.7004 13.7241 35.6009 14.051 35.7501 15.919Z" fill="black"/>
<path d="M28.4868 15.4988L26.248 16.2927L26.3973 18.8613C26.4968 20.2623 26.6958 22.8776 26.8948 24.699L27.1933 27.9681L29.2827 27.8747C31.6707 27.7813 33.6109 26.9873 33.1134 26.2401C32.9144 25.9599 32.0189 25.8665 30.9245 26.0533C29.0837 26.3335 29.034 26.2868 28.835 24.6523C28.636 22.9243 29.3822 22.1304 31.1732 22.1304C31.6707 22.1304 31.9194 21.8502 31.8199 21.2898C31.6209 20.4491 31.3722 20.4024 29.5812 20.9628C28.4868 21.243 28.437 21.1029 28.437 19.1415C28.437 17.0866 28.4868 17.0399 30.228 16.713C31.422 16.5262 31.9194 16.1993 31.8199 15.6856C31.6209 14.6581 30.9742 14.6114 28.4868 15.4988Z" fill="black"/>
<path d="M110.871 14.9383C110.722 15.1251 110.025 15.3119 109.428 15.4053C108.782 15.5454 107.041 15.8257 105.548 16.0592C104.056 16.2927 101.17 16.7597 99.1304 16.9932C97.0907 17.2734 95.051 17.6937 94.5535 17.9272C94.056 18.2074 92.663 18.3942 91.4193 18.3942C89.4791 18.3942 89.1309 18.5344 89.1309 19.3283C89.1309 19.842 88.7826 20.2623 88.3846 20.2623C87.9866 20.2623 87.6384 19.9821 87.6384 19.6085C87.6384 19.1415 87.2901 19.0014 86.5439 19.1415C85.8972 19.2816 84.3549 19.5151 83.0615 19.6552C80.4248 19.9354 80.2755 20.2623 81.0218 23.5781L81.37 25.166L81.7182 23.5314C82.0167 21.8969 82.0167 21.8969 82.166 23.9984C82.2157 25.166 82.4645 26.6137 82.6635 27.2675C82.962 28.2016 83.0615 27.9681 83.1112 26.1C83.161 24.6056 83.3102 23.9984 83.6087 24.4187C83.9072 24.7924 84.4047 24.9325 85.1509 24.699C86.2454 24.372 86.2952 24.4655 85.9967 26.3802L85.7479 28.4351L86.2952 26.6604C86.5936 25.7264 86.9916 24.9325 87.2404 24.9325C87.4394 24.9325 87.6384 24.0918 87.6384 23.0644C87.6384 21.7568 87.8374 21.1963 88.3349 21.1963C89.0314 21.1963 90.0761 23.3913 90.1756 25.1193C90.2253 25.8198 90.3248 25.7264 90.6233 24.699L91.0213 23.2979L91.0711 24.699C91.1208 25.4462 91.3696 26.4269 91.6183 26.8005C91.9666 27.3609 92.1158 27.1741 92.1158 26.1C92.1655 24.8391 92.2153 24.7924 92.6133 25.6797C93.2103 27.1274 94.1058 27.5011 94.1058 26.3802C94.1058 25.8198 94.3545 25.3995 94.6033 25.3995C94.9017 25.3995 95.1007 25.5863 95.1007 25.8665C95.1007 26.1 95.3992 26.1934 95.7972 26.0533C96.3942 25.8198 96.4937 26.2868 96.3445 28.295C96.245 29.6493 96.245 30.4433 96.3942 30.0696C97.2897 27.828 98.2847 26.1934 98.4837 26.7071C98.5832 26.9873 98.8817 27.1741 99.1304 27.034C99.3792 26.8472 99.4787 27.4544 99.3294 28.295C99.1802 29.3691 99.3792 29.0422 100.076 27.2675C100.573 25.8665 101.17 23.6715 101.369 22.4106L101.717 20.1222L103.061 23.5781C103.807 25.4929 104.752 27.6879 105.2 28.4818C106.444 30.7702 108.185 37.9622 107.837 39.5968C107.687 40.3907 107.687 40.811 107.936 40.5775C108.135 40.2973 108.583 40.1105 108.981 40.1105C109.379 40.1105 109.777 39.7836 109.876 39.41C110.075 38.8028 110.025 38.8028 109.528 39.41C109.08 40.0171 109.03 39.9704 109.18 39.1765C109.279 38.6627 109.627 38.2891 110.075 38.3825C110.473 38.4759 110.622 38.3825 110.423 38.1957C109.876 37.682 110.971 36.6079 112.065 36.6079C112.662 36.6079 113.259 37.4018 114.005 39.2699C115.498 43.006 115.647 45.7614 114.453 48.2366C113.956 49.3574 113.657 50.4315 113.806 50.665C113.956 50.8986 113.956 51.0854 113.806 51.0854C113.657 51.0854 112.762 49.6376 111.816 47.8629C110.821 46.0883 109.478 43.8466 108.732 42.8659L107.389 41.0445L107.787 42.6791C107.986 43.5664 108.135 44.8273 108.085 45.4812C108.036 46.3218 108.185 46.4619 108.483 45.9949C108.831 45.5279 109.03 45.7147 109.229 46.7888C109.428 47.536 110.025 48.9838 110.523 49.9178C111.02 50.8518 111.319 51.9727 111.17 52.3463C110.921 52.9067 111.02 53.0001 111.568 52.7199C112.165 52.3463 112.165 52.4397 111.568 53.0935C110.821 53.9809 110.274 54.1677 110.821 53.327C111.02 53.0001 110.971 52.9534 110.622 53.1402C110.274 53.327 110.025 53.7473 110.025 54.0743C110.025 55.8022 105.598 58.2774 105.498 56.5494C105.498 56.2692 105.051 57.5769 104.553 59.4916C103.011 64.9557 100.076 70.0929 96.842 72.9884C95.2997 74.3427 94.1058 75.5103 94.2053 75.557C94.7525 75.9306 101.469 76.7712 103.956 76.7712C106.842 76.7712 106.991 76.8179 107.24 78.0322C107.389 78.7794 107.588 80.3205 107.638 81.5348C107.687 83.6364 107.787 83.7298 109.478 84.1968C111.219 84.6638 111.219 84.7105 109.677 84.477C108.135 84.2902 108.036 84.3369 108.036 85.7846C107.986 87.1857 107.986 87.2324 107.289 86.3918C106.643 85.5978 106.543 85.5511 106.543 86.2516C106.543 86.9522 106.792 87.0923 107.936 86.9989C108.135 86.9989 108.434 87.4659 108.632 88.073C109.03 89.4741 109.13 93.1168 108.732 93.1168C108.583 93.1168 107.19 92.7899 105.697 92.3696C104.205 91.9492 102.911 91.7157 102.762 91.8558C102.663 91.9492 104.056 92.4163 105.896 92.8833C110.423 94.0041 116.543 95.8722 117.587 96.3859C118.98 97.1331 119.229 96.9463 118.234 95.9189C117.737 95.4052 116.99 94.9848 116.543 94.9848C115.896 94.9381 115.896 94.8914 116.642 94.4711C117.339 94.0975 117.786 94.1442 118.533 94.798C119.826 95.9189 121.219 96.059 121.965 95.2184C122.313 94.8447 122.861 94.5178 123.209 94.5178C123.507 94.5178 124.552 94.1442 125.497 93.7239C126.542 93.2569 128.532 92.8833 130.671 92.8833C133.756 92.7899 134.95 92.5564 138.631 91.202C139.178 91.0152 140.522 90.5949 141.616 90.3147C142.711 89.9878 144.999 89.1471 146.74 88.3999C148.432 87.6527 150.073 87.0456 150.322 87.0456C150.621 87.0456 150.82 86.5319 150.82 85.9247C150.82 85.3176 151.168 84.6638 151.616 84.5237C152.163 84.3369 152.362 83.8699 152.213 83.0759C152.063 82.3287 152.262 81.6749 152.859 81.1612C153.407 80.6942 153.805 79.9936 153.805 79.5266C153.805 79.0596 154.153 78.3591 154.601 77.9388C155.795 76.8646 154.8 74.9032 153.058 74.9032C152.312 74.9032 151.815 74.623 151.815 74.2493C151.815 73.8757 151.516 73.4554 151.218 73.362C150.869 73.2219 151.317 72.895 152.213 72.5681C153.058 72.2412 153.805 71.8676 153.805 71.6341C153.805 71.1203 152.76 70.3731 151.566 70.0462C151.019 69.9061 151.317 69.8594 152.213 69.9528C154.451 70.1396 154.203 69.5792 151.715 68.9254C150.521 68.6452 148.83 67.9913 147.934 67.4309C146.591 66.637 146.392 66.3568 146.79 65.6095C147.188 64.9557 147.089 64.5354 146.342 63.9283C145.049 62.8075 145.099 62.3871 146.591 61.7333C147.387 61.4064 147.785 60.8927 147.686 60.2389C147.586 59.3982 147.934 59.2114 150.073 58.9779C151.466 58.8378 152.163 58.651 151.715 58.651C150.72 58.5576 150.123 57.8104 150.77 57.4368C151.019 57.2967 151.765 57.5769 152.461 58.0906C153.904 59.1647 156.491 60.1922 156.043 59.4916C155.894 59.2114 155.397 59.0246 154.999 59.0246C154.004 59.0246 151.715 56.8297 150.173 54.3078C148.581 51.7392 148.482 51.0854 149.825 51.0854C150.77 51.0854 150.919 50.8518 151.019 49.2173C151.068 48.8437 151.566 48.4701 152.213 48.3767C152.81 48.2833 153.307 48.0965 153.307 47.9096C153.357 46.8355 154.203 46.4152 155.397 46.8355C156.392 47.1624 156.79 47.1624 156.939 46.6954C157.237 45.9949 156.392 45.0141 155.496 45.0141C155.148 45.0141 154.8 44.5471 154.7 43.9867C154.601 43.3796 154.153 42.8659 153.556 42.7725C153.009 42.6791 151.914 41.9785 151.168 41.278C149.725 39.877 148.332 39.877 148.332 41.2313C148.332 41.8851 148.233 41.8851 147.835 41.278C147.536 40.811 147.536 40.5308 147.835 40.4374C148.681 40.1572 148.382 39.5501 147.288 39.2699C146.492 39.083 146.143 39.2699 145.944 40.0171C145.646 40.9511 145.596 40.9044 145.347 39.6902C145.198 38.8028 144.75 38.2891 144.104 38.1957C143.059 38.0556 136.84 38.9896 132.91 39.877C129.079 40.7643 126.094 40.9511 125.746 40.3907C125.398 39.9237 125.945 39.5968 128.681 38.6627C129.577 38.3825 129.577 38.2891 128.333 37.8688C127.139 37.4485 126.94 37.0749 126.94 35.6271C126.94 34.6464 126.741 33.7591 126.492 33.5723C126.244 33.4322 126.144 32.6382 126.293 31.7509C126.443 30.8636 126.343 30.0696 125.995 29.8828C125.099 29.3691 125.348 25.3528 126.293 24.3253C127.089 23.5314 127.089 23.3913 126.393 22.9243C125.995 22.5974 125.497 21.9903 125.298 21.5233C125.099 21.1029 124.453 20.5425 123.856 20.309C123.209 20.0755 122.264 19.2349 121.717 18.4409C121.169 17.647 120.373 16.9932 119.975 16.9932C119.528 16.9932 118.781 16.713 118.234 16.3861C117.687 16.0592 116.045 15.4987 114.602 15.2185C111.518 14.5647 111.319 14.5647 110.871 14.9383ZM96.5932 24.9325C96.5932 25.166 96.3445 25.3995 96.046 25.3995C95.7972 25.3995 95.6977 25.166 95.847 24.9325C95.9962 24.6523 96.245 24.4655 96.3942 24.4655C96.4937 24.4655 96.5932 24.6523 96.5932 24.9325ZM145.248 43.3796C145.099 43.5197 144.8 43.2862 144.651 42.8192C144.352 42.1654 144.402 42.1187 144.9 42.539C145.248 42.8659 145.397 43.2395 145.248 43.3796ZM147.337 45.5279C148.133 46.9289 147.735 46.9756 146.691 45.668C146.193 45.0608 146.044 44.5471 146.293 44.5471C146.591 44.5471 147.039 44.9674 147.337 45.5279ZM143.855 50.8986C143.855 50.992 143.407 50.8986 142.86 50.6183C142.313 50.3381 141.865 50.0112 141.865 49.8711C141.865 49.7777 142.313 49.8711 142.86 50.1513C143.407 50.4315 143.855 50.7584 143.855 50.8986ZM142.661 59.4916C142.81 61.9201 142.76 64.442 142.512 65.0491C142.163 65.8898 142.064 65.3293 142.064 62.7141C142.114 60.7993 141.964 57.6703 141.765 55.7555C141.467 53.1402 141.517 52.5798 141.915 53.6539C142.163 54.4012 142.512 57.0632 142.661 59.4916ZM144.203 55.7555C143.855 56.5494 143.556 56.9698 143.457 56.7362C143.308 56.2692 144.203 54.3545 144.551 54.3545C144.701 54.3545 144.502 55.0083 144.203 55.7555ZM144.352 58.0906C144.352 58.3241 144.153 58.5576 143.855 58.5576C143.606 58.5576 143.357 58.3241 143.357 58.0906C143.357 57.8104 143.606 57.6236 143.855 57.6236C144.153 57.6236 144.352 57.8104 144.352 58.0906ZM144.352 61.4531C144.352 62.2003 144.203 62.3404 143.805 61.9668C143.507 61.6866 143.407 61.2196 143.556 60.9394C144.104 60.1455 144.352 60.3323 144.352 61.4531ZM143.706 65.4227C143.556 65.8898 143.457 65.6095 143.457 64.8623C143.457 64.0684 143.556 63.7415 143.706 64.0217C143.805 64.3486 143.805 65.0024 143.706 65.4227ZM150.471 70.7934C150.67 71.4472 150.422 71.6341 149.526 71.6341C148.482 71.6341 147.934 70.7934 148.581 70.1396C149.128 69.6259 150.272 69.9995 150.471 70.7934ZM152.81 71.7275C152.81 72.3346 151.665 71.961 151.417 71.2604C151.317 70.9335 151.516 70.7934 152.014 70.9802C152.461 71.1203 152.81 71.4939 152.81 71.7275ZM141.467 74.5763C141.616 75.8839 141.467 76.1174 140.621 76.1174C139.925 76.1174 139.626 75.7905 139.626 75.0433C139.626 73.6889 139.775 73.6889 140.372 74.9966C140.77 75.9773 140.82 75.9306 140.82 74.5296C140.87 72.6148 141.218 72.6148 141.467 74.5763ZM112.612 74.8565C112.413 75.3235 112.264 75.3702 112.115 74.9966C111.866 74.2026 110.523 74.296 110.523 75.09C110.523 75.4636 110.921 75.8839 111.418 75.9773C112.165 76.1641 112.165 76.2108 111.418 76.2575C110.971 76.2575 110.423 76.0707 110.274 75.8372C109.677 74.9499 110.473 73.9691 111.717 74.0625C112.513 74.1559 112.811 74.3894 112.612 74.8565ZM125.796 74.9032C125.945 75.4169 126.244 75.7438 126.443 75.6037C126.691 75.4636 126.99 75.5103 127.139 75.7438C127.438 76.2108 124.701 76.2108 124.204 75.7438C123.706 75.2768 124.303 73.9691 125 73.9691C125.298 73.9691 125.647 74.3894 125.796 74.9032ZM137.785 75.1367C137.636 75.2768 137.338 75.0433 137.188 74.5763C136.89 73.9224 136.94 73.8757 137.437 74.296C137.785 74.623 137.935 74.9966 137.785 75.1367ZM138.482 75.9306C138.084 76.3042 138.034 76.1174 138.233 75.3235C138.432 74.7164 138.631 74.4829 138.78 74.8565C138.88 75.1834 138.731 75.6971 138.482 75.9306ZM114.354 75.1834C114.204 75.3235 113.757 75.3702 113.408 75.2301C113.01 75.09 113.16 74.9499 113.707 74.9499C114.254 74.9032 114.553 75.0433 114.354 75.1834ZM115.946 75.6504C116.145 75.5103 116.592 75.6504 116.99 75.8839C117.538 76.2108 117.438 76.2575 116.543 76.1641C115.846 76.0707 115.249 75.7438 115.199 75.4169C115.15 75.1367 115.199 75.09 115.349 75.3702C115.448 75.6037 115.747 75.7438 115.946 75.6504ZM152.71 79.3398C153.257 80.6475 153.257 80.6475 152.561 79.8535C152.163 79.3398 151.815 78.7327 151.815 78.4525C151.815 78.219 151.417 77.5652 150.969 77.0514L150.123 76.0707L151.118 77.0047C151.665 77.5185 152.412 78.5459 152.71 79.3398ZM112.861 84.9907C112.712 85.1308 112.264 85.1775 111.916 85.0374C111.518 84.8973 111.667 84.7572 112.214 84.7572C112.762 84.7105 113.06 84.8506 112.861 84.9907ZM114.801 86.7654C118.881 87.6994 121.816 88.5867 122.861 89.1938C123.01 89.2406 120.125 94.5178 119.727 94.9381C119.627 94.9848 119.329 94.9381 119.03 94.798C118.732 94.6112 118.98 93.5838 119.727 92.0426C120.423 90.735 120.771 89.4741 120.523 89.2406C120.075 88.8202 116.642 87.9796 111.667 87.0456C109.926 86.7187 108.533 86.2516 108.533 86.0648C108.533 85.4577 109.279 85.5511 114.801 86.7654ZM128.035 86.5319C128.831 86.8121 128.681 87.2324 126.791 90.3147C125.249 92.93 124.403 93.864 123.507 93.9574C122.313 94.1442 122.363 94.0975 124.104 91.1553C125.249 89.2873 126.293 88.1197 127.04 87.9329C128.084 87.6527 128.035 87.606 126.691 87.5126C125.895 87.5126 123.209 87.0923 120.722 86.6253L116.244 85.7846L121.717 86.0181C124.751 86.1582 127.587 86.3918 128.035 86.5319Z" fill="black"/>
<path d="M124.453 75.1367C124.453 75.5103 124.702 75.8372 124.95 75.8372C125.249 75.8372 125.448 75.5103 125.448 75.1367C125.448 74.7631 125.249 74.4362 124.95 74.4362C124.702 74.4362 124.453 74.7631 124.453 75.1367Z" fill="black"/>
<path d="M21.9696 21.0562C21.3726 23.3446 20.6761 25.4462 20.4771 25.7731C20.2781 26.1934 19.4821 25.5863 18.0394 23.8116C16.8952 22.3639 15.9002 21.1963 15.8007 21.1963C15.7012 21.1963 15.2535 22.1771 14.756 23.3913C14.2585 24.6523 13.5122 26.3335 13.1143 27.2208L12.4178 28.8554L10.7263 25.166C8.78608 21.0095 8.28859 20.309 7.54235 21.0095C6.99511 21.5232 11.4725 31.5174 12.368 31.7976C12.6665 31.891 13.6117 30.3031 14.5072 28.2016C15.4027 26.1467 16.1987 24.4654 16.2982 24.4654C16.3977 24.4654 17.3927 25.633 18.5369 27.034C19.6811 28.4818 20.8254 29.4625 21.0244 29.2757C21.6711 28.6686 24.855 18.2074 24.6063 17.6003C23.9596 16.0592 23.0143 17.2734 21.9696 21.0562Z" fill="black"/>
<path d="M79.2308 20.1222C79.2308 20.4491 78.7333 20.7293 78.1861 20.7293C77.3901 20.7293 77.1911 21.0562 77.1414 22.4573L77.0419 24.2319L76.6936 22.5974C76.3951 21.1963 76.2956 21.4298 76.2459 23.9984C76.1961 25.6797 76.0469 27.5477 75.9474 28.2016C75.6986 29.229 75.7484 29.229 76.1464 28.4351C76.3951 27.9214 76.6439 26.9406 76.6439 26.2401C76.6936 25.2594 76.9921 24.8858 77.9374 24.6523C79.1313 24.372 79.6786 23.5314 78.6836 23.5314C78.4348 23.5314 78.1861 23.2979 78.1861 23.0177C78.1861 22.7842 78.4348 22.6908 78.6836 22.8309C79.3303 23.2045 79.8278 21.9903 79.5293 20.6359C79.4298 20.0288 79.2806 19.842 79.2308 20.1222Z" fill="black"/>
<path d="M71.5197 22.2238C70.9725 24.0918 70.4252 27.6878 70.7735 27.4076C71.4202 26.7538 72.6639 21.6633 72.1665 21.6633C71.9177 21.6633 71.6192 21.9435 71.5197 22.2238Z" fill="black"/>
<path d="M64.7539 23.1578C62.4156 23.6715 59.5799 24.1852 58.386 24.3253C56.6945 24.5122 56.2965 24.699 56.5453 25.3528C56.6945 25.7731 57.1422 27.3609 57.5402 28.9021C58.3362 31.7509 58.7342 32.5915 58.8337 31.424C58.8337 31.0504 59.182 31.5174 59.5302 32.4047C60.2267 34.0393 60.2764 33.9459 60.5252 31.0037C60.7242 28.3417 60.7242 28.2016 61.3212 28.2016C61.5699 28.2016 61.6694 28.4351 61.5202 28.7153C61.3212 28.9955 61.6197 28.9488 62.1669 28.6219C62.7639 28.295 63.3111 27.5011 63.5101 26.9406C63.7589 26.0066 63.9081 25.9132 64.8036 26.3802C65.4006 26.6604 65.7488 26.7071 65.5498 26.4269C65.4006 26.1934 65.5996 25.8198 65.9976 25.6797C66.7936 25.3995 66.7936 25.5863 65.6493 29.7894C64.8036 32.9184 65.5001 32.0311 67.1916 27.6879C69.0323 23.1111 69.8283 22.1771 68.2363 26.567C67.689 28.0615 67.3408 29.3691 67.4403 29.4625C67.6393 29.696 69.48 25.3061 70.0273 23.2979C70.3755 21.8969 70.3755 21.8969 64.7539 23.1578Z" fill="black"/>
<path d="M78.0368 25.2594C77.8378 25.3995 77.6886 25.8665 77.6886 26.2868C77.7383 26.8939 77.8378 26.8939 78.2358 26.1934C78.7831 25.3061 78.6338 24.6522 78.0368 25.2594Z" fill="black"/>
<path d="M81.2208 26.1467C81.2208 26.6604 81.37 26.8005 81.5193 26.4269C81.6685 26.1 81.6187 25.6797 81.4695 25.5396C81.3203 25.3528 81.171 25.633 81.2208 26.1467Z" fill="black"/>
<path d="M50.7246 26.1934C49.7794 26.4269 49.6301 27.9214 50.3266 30.0696L50.6748 31.2372L50.9733 30.0696C51.3713 28.4351 51.8191 25.8665 51.6698 25.9132C51.6201 25.9599 51.1723 26.0533 50.7246 26.1934Z" fill="black"/>
<path d="M87.1907 27.0808C87.1907 27.5945 87.3399 27.7346 87.4892 27.361C87.6384 27.0341 87.5887 26.6138 87.4394 26.4737C87.2902 26.2869 87.1409 26.5671 87.1907 27.0808Z" fill="black"/>
<path d="M90.7228 27.2675C90.7228 27.9214 90.8223 28.1549 90.9716 27.828C91.0711 27.5478 91.0711 26.9873 90.9716 26.6604C90.8223 26.3802 90.7228 26.6137 90.7228 27.2675Z" fill="black"/>
<path d="M40.6255 28.5285C36.6954 28.9956 36.7451 28.9489 37.0934 31.7043C37.2426 33.0586 37.5909 34.6932 37.8396 35.3003C38.2873 36.3277 38.3371 36.3277 38.3868 34.9734C38.3868 34.1794 38.7351 33.152 39.1331 32.685C39.8793 31.751 39.8793 31.751 39.9291 32.685C40.0286 33.8058 40.0286 33.8058 39.6306 35.4404C39.3321 36.7947 39.3321 36.7947 39.9788 35.7673C40.3768 35.2069 40.8743 34.88 41.123 35.0668C41.322 35.2536 41.3718 35.0668 41.2225 34.5997C41.0235 34.1327 41.2225 33.0119 41.6205 32.0779C42.0185 31.1905 42.2175 30.2098 42.0185 29.9296C41.8693 29.6961 41.9688 29.6027 42.2175 29.7428C42.516 29.9296 42.8643 29.6494 43.0135 29.1357C43.1628 28.5752 43.0135 28.2483 42.715 28.2483C42.3668 28.295 41.4713 28.4351 40.6255 28.5285Z" fill="black"/>
<path d="M35.2526 29.8828C35.0536 30.0697 34.2079 30.2565 33.3124 30.3499C30.3772 30.5834 27.6908 31.0504 26.6958 31.4707C25.5516 31.9844 21.6711 32.7316 16.9947 33.3855C15.2037 33.619 13.3133 33.9926 12.766 34.2261C10.9253 34.9266 6.6469 36.1409 6.00016 36.1409C4.75643 36.1876 3.06496 37.9155 3.06496 39.0831C3.06496 39.7836 2.61722 40.5308 1.82124 40.9978C0.677006 41.6983 0.577508 42.072 0.577508 44.9675C0.577508 47.4426 0.776504 48.2833 1.47299 48.8904C1.97048 49.3574 2.66697 49.6843 2.96546 49.6843C3.31371 49.6843 3.56245 50.1046 3.56245 50.6184C3.56245 51.1788 3.9107 51.5524 4.35844 51.5524C6.2489 51.5524 3.6122 57.4368 1.075 58.9312C0.527759 59.2581 0.0800171 59.8653 0.0800171 60.3323C0.0800171 61.0795 0.47801 61.1262 3.21421 60.9861C6.49765 60.7993 9.33335 61.4998 8.73636 62.3404C8.53736 62.7141 8.28862 62.7141 7.89062 62.3404C7.59213 62.0602 6.99514 61.8267 6.5474 61.8734C6.04991 61.8734 6.00016 61.9668 6.4479 62.1536C6.7464 62.247 7.04489 62.6674 7.04489 63.041C7.04489 63.5547 7.24389 63.6014 7.94037 63.2745C9.03485 62.7141 10.0298 63.4146 10.0298 64.6755C10.0298 65.1425 10.2786 65.6563 10.5273 65.7964C11.4726 66.3568 11.0248 67.4309 9.43285 68.4117C8.08962 69.1589 7.19414 69.299 4.70668 69.1589C1.82124 68.9721 0.577508 69.4391 2.26898 70.0462C2.66697 70.1863 3.06496 70.7 3.21421 71.167C3.46296 72.0544 6.89564 73.9691 8.28862 73.9691C9.23385 73.9691 9.23385 74.8565 8.28862 76.1174C7.89062 76.6778 7.74138 77.2383 7.89062 77.4251C8.03987 77.5652 8.13937 78.7327 8.08962 79.9936C8.03987 81.3013 8.38812 83.2161 8.83586 84.2902C9.53234 85.8313 9.58209 86.4385 9.13435 87.0923C8.23887 88.3999 8.38812 88.5867 10.1791 88.2598C11.1741 88.073 11.5223 88.1197 11.0746 88.3999C10.6766 88.6334 10.5771 89.0538 10.8258 89.4274C11.0248 89.801 11.1741 91.9026 11.1243 94.1442C11.0248 97.46 11.1741 98.6276 12.1193 100.589L13.2138 102.971L15.2535 102.691C16.348 102.504 17.9399 102.224 18.7359 101.99C20.8751 101.43 26.9445 101.009 25.7008 101.523C25.0043 101.803 24.9546 101.943 25.4521 101.99C26.049 101.99 25.9495 102.177 25.2033 102.784L24.2083 103.531L25.2033 103.158C25.7505 102.924 26.6958 102.737 27.2928 102.737C27.84 102.691 28.238 102.551 28.1385 102.364C27.84 101.943 29.432 101.663 30.7752 101.897C31.4219 101.99 31.7702 102.317 31.5712 102.597C31.4219 102.877 31.5214 102.924 31.8199 102.737C32.8149 102.177 32.4667 101.523 31.1732 101.523C30.4767 101.523 29.9295 101.29 29.9295 101.009C29.9295 100.682 30.5265 100.542 31.3722 100.682C32.2179 100.776 32.7652 100.729 32.6159 100.496C32.4667 100.309 31.9194 100.122 31.4219 100.122C30.9245 100.122 30.427 99.9819 30.3275 99.7484C30.2777 99.5616 29.5315 99.0946 28.7355 98.721C27.9395 98.3474 27.1933 97.787 27.0938 97.5067C26.9943 97.1798 28.4867 96.3859 30.5265 95.6387C32.5164 94.9382 36.6456 93.1635 39.73 91.669C43.2125 90.0345 45.4512 89.1939 45.7497 89.4741C46.2472 89.9411 46.0482 88.0263 45.5009 86.5786C44.6552 84.4303 45.0034 83.8232 47.3417 83.4496L49.5804 83.1227L47.8391 82.7957C46.8939 82.6089 45.9984 82.5155 45.8989 82.6556C45.7994 82.749 45.9984 82.8424 46.3964 82.8891C46.7944 82.9358 46.5457 83.076 45.8492 83.2628C44.9039 83.4963 44.5557 83.9166 44.4562 85.1308C44.3567 86.0182 44.506 86.9055 44.8045 87.1857C45.5507 87.8862 45.5009 88.3065 44.6552 88.5867C44.108 88.7735 43.9587 88.1197 43.909 85.3643C43.8592 83.4029 43.8095 81.7216 43.8095 81.5348C43.6105 80.1805 43.9587 79.5733 45.0034 79.5733C45.6502 79.5733 46.4462 79.8535 46.7944 80.1805C47.3417 80.6008 47.4412 80.6008 47.1427 80.1338C46.9437 79.8068 47.0432 79.5733 47.4412 79.5266C47.7894 79.5266 48.5356 79.4332 49.0829 79.3398C49.6301 79.1997 51.6201 79.0596 53.5105 79.0129C55.6498 78.9195 56.993 78.6393 57.1422 78.2657C57.2915 77.9855 57.59 77.7053 57.8885 77.7053C58.1372 77.7053 58.187 77.8921 58.0377 78.1723C57.6895 78.686 58.3362 78.7794 59.4804 78.3591C59.9282 78.219 60.1769 77.8921 60.0277 77.7053C59.8784 77.4718 60.0277 77.1449 60.3262 76.958C60.6744 76.7712 60.7739 76.8179 60.6247 77.0982C60.4257 77.3784 60.9232 77.9855 61.6694 78.4525C62.6644 79.0596 62.8634 79.0596 62.4156 78.5459C61.8684 77.9855 61.9679 77.7053 62.7141 77.0514C63.6594 76.2575 63.6594 76.2575 63.4106 77.3317C63.1619 78.4058 63.1619 78.4058 64.3061 77.1916C65.8981 75.5103 68.485 74.3895 69.1815 75.0433C69.5795 75.4169 69.7287 75.3235 69.7287 74.7164C69.7287 74.2961 69.9277 74.0625 70.2262 74.2027C70.475 74.3428 70.674 73.6422 70.6242 72.3813C70.6242 71.2605 70.7735 70.0462 70.9725 69.766C71.271 69.3457 71.1715 69.2523 70.7237 69.5325C70.3257 69.766 70.1765 69.6726 70.3257 69.2523C70.475 68.8787 70.873 68.6452 71.1715 68.7386C71.5197 68.7853 71.669 68.6452 71.47 68.365C71.3207 68.1314 71.072 67.8979 70.9725 67.8979C70.674 67.8979 67.0423 72.8016 67.092 73.1285C67.1915 73.2686 66.8433 73.6889 66.3458 74.0625C65.5996 74.623 65.5498 74.5763 66.1966 73.829C67.1418 72.7082 66.7438 72.8016 63.4604 74.6697C61.8684 75.557 59.0327 76.7712 57.192 77.3317L53.809 78.3591L50.7246 76.958C49.0331 76.2108 47.4412 75.6504 47.1924 75.7438C46.9934 75.7905 46.8939 75.6971 47.0432 75.4636C47.1924 75.2301 46.6949 74.7631 45.9487 74.3895C44.2075 73.5488 40.3768 70.1396 40.3768 69.4391C40.3768 69.1122 39.8295 67.8979 39.1331 66.637C38.0386 64.7222 37.6406 64.442 36.4964 64.5354C35.5511 64.6288 34.6556 64.3019 33.7104 63.4613C32.9144 62.8075 31.9692 62.3404 31.5712 62.4806C31.1732 62.6207 30.9742 62.574 31.1235 62.3404C31.2727 62.1069 31.0737 61.78 30.626 61.6399C30.1285 61.4531 29.9792 61.5465 30.228 61.9668C30.427 62.247 30.1782 62.2003 29.6807 61.7333C28.3375 60.5658 29.1832 60.0521 32.4169 60.1922C34.0586 60.2856 35.4019 60.2389 35.4019 60.1455C35.4019 59.8186 31.6209 56.6896 31.1732 56.6896C30.9245 56.6896 31.4717 57.2967 32.4169 58.0906L34.1581 59.445L32.5662 59.4917C31.7204 59.4917 30.8747 59.2114 30.7752 58.8845C30.5762 58.4175 30.4767 58.4175 30.4767 58.8845C30.427 59.2114 30.228 59.4917 29.9792 59.4917C29.6807 59.4917 29.7305 58.8378 29.9792 57.8571C30.2777 56.9698 30.3275 55.989 30.1782 55.7555C29.9792 55.4753 30.4767 55.4286 31.4717 55.6154C32.9144 55.8956 33.0139 55.8489 32.4667 54.9149C32.1682 54.4012 31.9194 53.4671 31.9194 52.86C31.8697 52.2529 31.5214 51.2722 31.1235 50.6184C30.6757 49.9178 30.4767 49.8244 30.7255 50.3848C30.9245 50.8986 31.1235 52.0661 31.1235 53.0468C31.1732 53.9809 31.3224 54.6347 31.5712 54.4946C31.7702 54.4012 31.9194 54.5413 31.9194 54.8215C31.9194 55.1484 31.6209 55.2885 31.3224 55.1484C30.9742 55.055 30.626 54.2611 30.5762 53.3737C30.5265 52.4864 30.3275 50.1513 30.1782 48.1432C29.83 44.0801 30.1782 41.9319 32.4667 35.02C33.4617 32.0311 34.1581 30.5834 34.4069 31.0037C34.7054 31.4707 34.9541 31.3773 35.3521 30.5834C35.9491 29.6026 35.8496 29.3224 35.2526 29.8828ZM27.243 47.6294C27.4918 48.5168 27.6908 48.6569 27.9893 48.1899C28.2878 47.8163 28.437 48.4701 28.437 49.9178C28.437 51.7392 28.238 52.393 27.442 52.86C26.5465 53.3737 26.447 53.327 26.447 52.0661C26.447 51.3189 26.2978 50.3381 26.0988 49.8711C25.8998 49.3107 25.9993 49.1706 26.4968 49.3107C26.9445 49.4508 27.1435 50.0112 27.044 50.8052C26.8948 51.6925 27.044 52.0194 27.3923 51.8326C28.2878 51.3189 28.039 49.731 26.9445 49.1239C26.3973 48.797 25.9495 48.0498 25.9495 47.4893C25.9495 46.0416 26.845 46.135 27.243 47.6294ZM24.4571 53.1869C24.8053 54.3545 25.2033 55.2885 25.3526 55.2885C25.4521 55.2885 26.0988 54.7748 26.7455 54.121C27.3923 53.4671 28.1385 52.9534 28.437 52.9534C29.1335 52.9534 28.5862 55.1017 27.3923 57.0632C26.845 57.9038 26.646 58.4642 26.9445 58.3241C27.243 58.184 27.2928 58.3708 27.1435 58.7444C26.9943 59.1647 26.646 59.3515 26.3973 59.2114C25.6013 58.7911 23.6113 54.6814 23.2631 52.8133C22.7656 50.3848 23.7108 50.6184 24.4571 53.1869ZM25.9495 54.588C25.9495 54.8215 25.7008 54.7281 25.4521 54.3545C25.2033 53.9809 24.9546 53.4204 24.9546 53.1869C24.9546 52.9067 25.2033 53.0468 25.4521 53.4204C25.7008 53.7941 25.9495 54.3078 25.9495 54.588ZM69.7785 70.8401C69.281 71.2605 69.2313 71.2138 69.5297 70.5599C69.679 70.0929 69.9775 69.8594 70.1267 69.9995C70.276 70.1396 70.1267 70.5132 69.7785 70.8401ZM65.4503 74.8098C65.5996 75.0433 65.4006 75.2301 65.0026 75.2301C64.6046 75.2301 64.4056 75.0433 64.5548 74.8098C64.7041 74.623 64.9031 74.4362 65.0026 74.4362C65.1021 74.4362 65.3011 74.623 65.4503 74.8098ZM40.8743 81.4414C40.4763 81.6749 39.929 81.9084 39.6305 81.9084C39.3818 81.9084 39.4813 81.6749 39.8793 81.4414C40.2773 81.2079 40.8743 80.9744 41.123 80.9744C41.4215 80.9744 41.2723 81.2079 40.8743 81.4414ZM34.8049 86.5786C34.4566 87.0456 34.1084 87.3725 33.9591 87.2791C33.7602 87.0923 34.8546 85.6445 35.2029 85.6445C35.3024 85.6445 35.1531 86.0649 34.8049 86.5786ZM28.9842 87.3725C28.3873 88.3065 28.2878 88.0263 28.7355 86.8121C28.9345 86.3918 29.1832 86.1583 29.2827 86.2984C29.432 86.3918 29.2827 86.9055 28.9842 87.3725ZM36.8943 87.7461C36.5461 88.1197 36.0486 88.4466 35.7501 88.4466C35.4516 88.4466 35.6506 88.1197 36.1979 87.7461C37.4416 86.8588 37.6903 86.8588 36.8943 87.7461ZM43.3617 87.7461C43.3617 88.2131 41.72 89.1939 39.0336 90.3614C32.5164 93.2102 25.8003 95.9189 25.6511 95.7788C25.6013 95.7321 25.8003 95.3585 26.0988 94.9382C26.845 94.0508 29.5812 92.6965 33.8099 91.2487C35.5511 90.6416 38.3371 89.4741 40.0285 88.6334C43.6602 86.8121 43.3617 86.8588 43.3617 87.7461ZM27.641 99.7951C28.039 99.3748 29.4817 100.636 29.1335 101.103C28.9842 101.336 28.3873 101.523 27.7903 101.476C26.7455 101.476 26.7455 101.43 27.6908 101.103C28.4867 100.823 28.3873 100.682 26.9445 100.449C24.6561 99.9819 23.3128 98.8611 24.1088 97.9738C24.6063 97.46 24.9546 97.6001 26.049 98.721C26.7455 99.4215 27.4918 99.9352 27.641 99.7951ZM21.4721 100.589C21.0741 100.823 20.3776 101.056 19.9797 101.056C19.3329 101.056 19.3329 101.009 19.9797 100.589C20.3776 100.356 21.0741 100.122 21.4721 100.122C22.1189 100.122 22.1189 100.169 21.4721 100.589Z" fill="black"/>
<path d="M109.777 41.0912C109.031 42.212 108.981 42.3988 109.727 42.9592C110.175 43.3329 110.274 43.3796 110.026 43.0526C109.379 42.3054 109.379 41.6049 110.026 41.9785C110.324 42.1653 110.523 42.1186 110.473 41.8851C110.274 40.811 110.623 40.344 111.667 40.344C112.314 40.344 112.861 40.6242 112.911 40.9044C113.259 44.3603 113.458 45.5745 113.757 45.8547C114.155 46.2284 113.657 40.9511 113.21 40.2973C112.662 39.4099 110.623 39.9236 109.777 41.0912Z" fill="black"/>
<path d="M43.6105 41.7917C41.4713 42.3521 38.6853 44.6405 37.1928 47.069C36.0486 48.8904 35.9491 49.3107 36.4964 50.3848C37.2426 51.9727 37.9391 51.6925 39.1331 49.3107C39.6803 48.2365 40.327 47.3959 40.526 47.3492C40.7748 47.3492 40.8245 47.536 40.6255 47.8162C40.4763 48.0497 40.725 48.6102 41.2225 49.0772C41.72 49.5442 42.516 50.5249 43.0135 51.2254C43.4612 51.926 44.108 52.4864 44.3567 52.4864C44.6552 52.4864 44.506 51.926 44.0582 51.2721C43.312 50.2914 43.312 50.0112 43.8592 49.6843C44.2572 49.4508 44.7547 49.4041 44.9537 49.4975C45.1527 49.6376 45.3517 49.4508 45.3517 49.0772C45.3517 48.003 46.7944 47.1157 47.4412 47.7228C48.1376 48.3766 49.6301 48.4701 50.0281 47.8629C50.1774 47.6761 49.6799 47.5827 48.9336 47.6294C47.6899 47.8162 47.6899 47.7695 49.2321 47.1157C51.8191 45.9949 56.0975 47.1624 55.1025 48.7036C54.9035 48.9371 55.003 49.264 55.3015 49.4508C55.998 49.8711 55.8985 47.0223 55.1025 44.874C54.605 43.6598 54.605 43.2395 55.003 43.5664C55.3513 43.8466 55.8487 43.8466 56.2965 43.6131C56.6945 43.3796 57.2417 43.3329 57.5402 43.4263C57.789 43.5664 57.59 43.3329 57.0427 42.9593C56.5452 42.539 55.3015 41.9785 54.3065 41.745C52.2171 41.1846 45.6502 41.1846 43.6105 41.7917ZM49.6301 43.7999C50.1276 44.1735 50.4261 44.6405 50.1774 44.8273C49.9784 45.0141 49.8291 44.9207 49.8291 44.6405C49.8291 44.3136 49.2321 44.0801 48.5356 44.0801C47.8391 44.0801 47.3914 43.8933 47.5904 43.6131C47.9884 42.9593 48.4859 43.006 49.6301 43.7999Z" fill="black"/>
<path d="M111.418 42.7725C111.866 43.1928 111.816 43.5197 111.17 44.1735C110.374 45.0142 110.374 45.0142 111.17 44.734C111.617 44.5939 112.015 44.2669 112.015 43.9867C112.015 43.7532 112.314 43.7065 112.662 43.8933C112.961 44.0801 112.811 43.7999 112.314 43.2395C111.767 42.6791 111.219 42.2121 111.07 42.2121C110.921 42.2121 111.07 42.4456 111.418 42.7725Z" fill="black"/>
<path d="M94.8521 43.9401C92.4641 44.0802 87.7877 44.9208 86.3947 45.4345C85.8475 45.668 84.9022 46.0416 84.2555 46.2284C83.559 46.5086 85.3997 46.602 89.2304 46.5086C94.0561 46.3685 96.0958 46.5553 98.832 47.2092C100.772 47.7229 102.663 48.0031 103.011 47.9097C103.707 47.6762 100.523 45.4812 99.429 45.4812C99.0807 45.4812 98.3345 45.1076 97.7872 44.6406C97.1405 44.1269 96.1953 43.8934 94.8521 43.9401ZM99.5782 46.2284C99.5782 46.3218 99.23 46.4152 98.832 46.4152C98.434 46.4152 98.0857 46.2284 98.0857 45.9482C98.0857 45.7147 98.434 45.6213 98.832 45.7614C99.23 45.9482 99.5782 46.135 99.5782 46.2284Z" fill="black"/>
<path d="M107.737 49.9178C107.289 50.5717 107.041 51.2255 107.19 51.4123C107.389 51.5524 107.687 51.2722 107.886 50.8052C108.085 50.3382 108.583 49.6843 108.981 49.3574C109.528 48.9838 109.578 48.797 109.18 48.7503C108.832 48.7503 108.185 49.264 107.737 49.9178Z" fill="black"/>
<path d="M109.279 51.0854C109.379 51.2722 108.732 51.6925 107.787 52.0194C106.245 52.5798 105.051 54.4946 105.797 55.1951C105.946 55.3352 106.046 55.1017 106.046 54.6814C106.046 53.7007 108.384 52.0194 109.827 52.0194C110.573 52.0194 110.921 51.7859 110.722 51.4123C110.573 51.0387 110.175 50.7585 109.777 50.7585C109.379 50.7585 109.18 50.8986 109.279 51.0854Z" fill="black"/>
<path d="M7.29362 65.4227C6.19914 66.0766 5.6519 66.4969 6.09964 66.3568C6.54738 66.2167 7.14437 66.3101 7.44286 66.5903C7.74136 66.8705 8.58709 66.9639 9.33333 66.7771C10.1293 66.5903 10.4776 66.3101 10.1791 66.1233C9.88057 65.9365 9.58207 65.4227 9.48258 65.0024C9.28358 64.3019 9.03483 64.3486 7.29362 65.4227Z" fill="black"/>
<path d="M75.0519 68.2715C74.0569 69.299 73.9574 70.4198 74.8529 71.1203C75.8479 71.8676 78.0866 69.5792 77.3901 68.505C76.6439 67.3375 75.9971 67.2908 75.0519 68.2715ZM77.0419 68.5985C77.3404 69.4391 75.7981 71.3071 75.1514 70.8868C74.5047 70.5132 74.6042 69.1122 75.3007 68.4583C76.0966 67.7111 76.6439 67.7578 77.0419 68.5985Z" fill="black"/>
<path d="M75.5494 69.1589C75.3504 69.299 75.2012 69.6726 75.2012 69.9528C75.2012 70.2331 75.4499 70.1864 75.7982 69.8594C76.0967 69.5792 76.2459 69.2056 76.1464 69.0655C75.9972 68.9254 75.6987 68.9721 75.5494 69.1589Z" fill="black"/>
<path d="M80.7233 71.2604C80.8228 73.1752 81.5193 75.9773 81.6188 74.7163C81.6686 73.7823 81.6686 73.7823 82.4645 74.7163C82.8625 75.1833 83.0615 75.3234 82.8625 74.9498C82.6138 74.4361 82.7133 74.3427 83.36 74.5762C83.8575 74.763 84.6535 74.6696 85.151 74.4361C85.7977 74.1092 86.146 74.1559 86.2952 74.5762C86.4942 74.9965 86.5937 74.9965 86.5937 74.5762C86.6435 74.2493 85.3997 73.2686 83.9073 72.3345C82.365 71.4472 81.2706 70.4665 81.4198 70.233C81.5691 69.9528 81.4696 69.766 81.2208 69.766C80.9223 69.766 80.7233 70.4665 80.7233 71.2604ZM83.957 73.5955C83.4595 73.8757 82.8625 73.8757 82.6635 73.6889C82.4148 73.4554 82.8128 73.2219 83.559 73.1752C84.6535 73.1285 84.753 73.1752 83.957 73.5955Z" fill="black"/>
<path d="M53.4608 79.4332C51.4211 79.6667 51.3216 80.2739 53.3115 80.2739C54.1573 80.2739 54.804 80.1338 54.804 79.9002C54.804 79.7134 55.0528 79.5733 55.3513 79.5733C55.6 79.5733 55.6995 79.7601 55.5502 80.0404C55.401 80.3206 55.6 80.3673 56.0477 80.1805C56.6945 79.9469 56.7442 79.8535 56.197 79.5266C55.8487 79.2931 55.4508 79.153 55.3015 79.1997C55.1523 79.2464 54.3065 79.3398 53.4608 79.4332Z" fill="black"/>
<path d="M48.9833 80.3673C49.4311 80.4607 50.1276 80.4607 50.4758 80.3673C50.7743 80.2272 50.4261 80.1338 49.5803 80.1338C48.7843 80.1338 48.4858 80.2272 48.9833 80.3673Z" fill="black"/>
<path d="M97.837 81.4414C97.3892 82.1419 98.036 82.8424 98.9812 82.7957C99.7274 82.749 99.7274 82.7023 98.9812 82.5155C97.9365 82.282 97.837 81.6282 98.7325 81.3012C99.1802 81.1144 99.1802 81.021 98.7325 81.021C98.434 80.9743 97.9862 81.1611 97.837 81.4414Z" fill="black"/>
<path d="M44.3567 81.9084C44.3567 82.5155 44.9039 82.5155 45.8492 81.9084C46.4462 81.5348 46.3964 81.4414 45.5009 81.4414C44.8542 81.4414 44.3567 81.6282 44.3567 81.9084Z" fill="black"/>
<path d="M48.3366 81.9084L47.0929 82.282L48.3366 82.3287C49.0331 82.3287 49.9286 82.1419 50.3266 81.9084C50.9733 81.4881 50.9733 81.4414 50.3266 81.4881C49.9286 81.5348 49.0331 81.7216 48.3366 81.9084Z" fill="black"/>
<path d="M53.0628 81.8617C52.2668 82.0018 51.819 82.282 52.0678 82.4221C52.3663 82.6089 53.3613 82.4688 54.3065 82.0952C56.1472 81.4881 55.5502 81.348 53.0628 81.8617Z" fill="black"/>
<path d="M52.3166 83.216C50.7246 83.4028 50.6748 83.4495 51.8191 83.7297C52.5156 83.9165 53.3115 84.5237 53.61 85.1308C53.9583 85.6912 54.3065 85.9714 54.5055 85.7379C54.6548 85.5044 54.4558 84.9907 54.008 84.6638C53.3115 84.1034 53.3115 84.01 54.1075 83.4495C54.605 83.1226 54.804 82.8891 54.5055 82.9358C54.2568 82.9358 53.2618 83.0759 52.3166 83.216Z" fill="black"/>
<path d="M48.1376 84.2901C48.2371 84.477 48.0879 84.8039 47.7894 84.9907C47.4909 85.1308 47.0432 85.0374 46.8442 84.7105C46.5954 84.2901 46.3964 84.2901 46.1477 84.6638C45.9487 84.944 46.0979 85.1775 46.4462 85.2242C46.7944 85.2242 46.6452 85.411 46.0979 85.6445C45.5507 85.878 45.4014 86.0648 45.7994 86.0648C46.4462 86.1115 49.8291 84.3835 49.8291 84.0099C49.8291 83.9165 49.3814 83.8698 48.8839 83.9165C48.3366 83.9165 47.9884 84.1033 48.1376 84.2901Z" fill="black"/>
<path d="M36.0487 94.3777C28.2878 98.0672 28.3375 98.0205 32.6657 99.8885C33.7602 100.356 34.3572 100.823 34.0089 100.963C33.3125 101.149 31.9195 103.485 31.9195 104.419C31.9692 104.745 32.417 104.232 32.9145 103.298C33.4617 102.364 34.0587 101.476 34.3074 101.383C34.5064 101.243 36.4466 101.009 38.6356 100.823C40.8246 100.636 44.506 100.356 46.8442 100.122L51.0729 99.7484L47.292 99.8418L43.511 99.8885L43.4613 95.5453C43.4613 93.1168 43.3618 91.1086 43.2623 91.1086C43.1628 91.0619 39.9291 92.5097 36.0487 94.3777Z" fill="black"/>
<path d="M75.3504 92.603C73.3604 93.0701 71.4202 94.2376 70.5745 95.4985C68.9328 98.0204 60.6247 101.523 56.197 101.523C55.4508 101.523 54.804 101.71 54.804 101.897C54.804 102.13 56.0477 103.251 57.5402 104.512C59.1322 105.773 60.9729 107.874 61.8684 109.462C62.7639 111.003 63.7589 112.264 64.0573 112.264C64.3061 112.264 65.3508 111.751 66.2961 111.097C67.3905 110.303 68.3855 109.976 69.082 110.163C69.679 110.303 70.3257 110.21 70.475 109.929C70.6242 109.696 71.3207 109.462 72.0172 109.462C73.2112 109.462 77.2409 108.435 79.4298 107.594C79.9771 107.361 81.6188 106.847 83.0615 106.38C85.6982 105.539 86.2454 104.979 84.9022 104.512C84.3052 104.278 84.3052 104.092 84.952 103.158C85.5987 102.224 85.5987 102.037 84.9022 101.523C83.7082 100.589 84.0067 100.262 86.7429 99.3748L89.3299 98.5808L87.0912 97.5534C85.8972 96.9463 84.4047 95.8254 83.758 95.0315C83.1113 94.1909 82.365 93.6772 82.0665 93.864C81.768 94.0508 81.6685 94.0041 81.8675 93.6772C82.0168 93.397 82.0168 93.0701 81.768 92.9299C80.9223 92.4629 76.8926 92.2761 75.3504 92.603ZM79.5791 96.6194C79.4298 96.7595 79.1313 96.526 78.9821 96.059C78.6836 95.4051 78.7333 95.3584 79.2308 95.7787C79.5791 96.1057 79.7283 96.4793 79.5791 96.6194ZM75.7981 97.5534C75.9474 98.2072 75.8479 98.7209 75.6489 98.7209C75.4001 98.7209 75.2011 98.5341 75.2011 98.3006C75.2011 98.0671 75.0519 97.5534 74.9027 97.1331C74.7534 96.7128 74.8032 96.3859 75.1016 96.3859C75.3504 96.3859 75.6986 96.8996 75.7981 97.5534ZM85.5987 98.4407C86.0464 98.9545 85.9469 99.0479 84.952 99.0479C84.1062 99.0479 83.8077 98.861 84.0067 98.4407C84.156 98.0671 84.4545 97.7869 84.6535 97.7869C84.8525 97.7869 85.3002 98.0671 85.5987 98.4407ZM69.5795 99.8885C69.3805 100.262 69.48 100.682 69.7287 100.823C70.5247 101.29 70.276 103.204 69.3805 103.952C68.684 104.512 64.2066 106.193 63.4106 106.193C63.3111 106.193 63.2614 105.259 63.2614 104.092C63.2614 102.457 63.4604 101.897 64.1568 101.71C64.6046 101.57 65.9976 100.916 67.2413 100.309C69.878 99.0012 69.9277 99.0012 69.5795 99.8885ZM76.1961 99.655C76.1961 99.8885 75.9971 100.122 75.6986 100.122C75.4499 100.122 75.2011 99.8885 75.2011 99.655C75.2011 99.3748 75.4499 99.188 75.6986 99.188C75.9971 99.188 76.1961 99.3748 76.1961 99.655ZM70.3755 104.652C70.0272 104.792 69.7287 105.166 69.7287 105.493C69.7287 106.427 68.883 106.8 67.9378 106.287C67.3905 106.006 67.291 105.773 67.689 105.539C67.9875 105.353 68.2363 105.446 68.2363 105.773C68.2363 106.053 68.7338 105.773 69.281 105.072C69.878 104.372 70.475 103.952 70.674 104.138C70.8232 104.325 70.674 104.559 70.3755 104.652ZM65.0026 111.33C64.8533 111.564 64.4553 111.797 64.2066 111.797C63.9081 111.797 63.8584 111.564 64.0076 111.33C64.1568 111.05 64.5548 110.863 64.8036 110.863C65.1021 110.863 65.1518 111.05 65.0026 111.33Z" fill="black"/>
<path d="M66.893 101.336C65.9975 101.71 65.2513 102.27 65.2513 102.597C65.2513 103.251 67.1915 104.512 67.6392 104.138C67.7885 103.998 67.5895 103.858 67.1915 103.858C66.7935 103.858 67.2412 103.438 68.087 102.924C69.1815 102.317 69.6292 101.757 69.4302 101.29C69.082 100.449 68.9825 100.449 66.893 101.336ZM68.7337 101.71C68.7337 101.85 68.5347 102.084 68.2362 102.224C67.9875 102.364 67.7387 102.27 67.7387 102.037C67.7387 101.757 67.9875 101.523 68.2362 101.523C68.5347 101.523 68.7337 101.616 68.7337 101.71Z" fill="black"/>
<path d="M98.4837 93.6305C96.8917 94.3777 95.5983 95.125 95.5983 95.2184C95.5983 95.4519 101.518 92.7899 102.016 92.3696C102.663 91.8092 100.921 92.4163 98.4837 93.6305Z" fill="black"/>
<path d="M92.1158 96.8529C90.8721 97.6001 90.0264 98.254 90.2751 98.254C90.6731 98.254 94.6033 95.8722 94.6033 95.6387C94.6033 95.3118 94.4043 95.4052 92.1158 96.8529Z" fill="black"/>
<path d="M109.528 97.7869C107.787 98.1138 107.787 98.1138 109.279 98.2072C110.125 98.2072 111.12 98.0204 111.518 97.7869C112.364 97.2732 112.065 97.2732 109.528 97.7869Z" fill="black"/>
<path d="M51.3216 99.8418C51.3216 99.9819 52.0678 100.542 52.9633 101.103C54.1075 101.897 54.3563 101.943 53.8588 101.383C53.1623 100.542 51.3216 99.4215 51.3216 99.8418Z" fill="black"/>
<path d="M97.2897 100.169C97.1405 100.449 96.3445 100.916 95.5485 101.243C94.3048 101.71 94.2053 101.943 94.7525 102.597C95.648 103.718 97.6877 102.644 97.9365 100.916C98.1355 99.6083 97.8867 99.2814 97.2897 100.169Z" fill="black"/>
<path d="M21.8701 102.317C22.1686 102.41 22.7656 102.41 23.1138 102.317C23.4123 102.177 23.1636 102.084 22.4671 102.084C21.7706 102.084 21.5218 102.177 21.8701 102.317Z" fill="black"/>
<path d="M91.0213 102.317C89.5288 102.551 89.4791 102.644 90.1258 104.092C90.5238 104.979 90.5736 104.979 90.5736 103.952C90.6233 102.831 91.3696 102.551 91.7675 103.485C91.9168 103.858 92.066 103.765 92.066 103.251C92.1158 102.831 92.3645 102.457 92.663 102.457C92.9118 102.457 93.0113 102.644 92.862 102.924C92.7128 103.158 92.9118 103.391 93.3595 103.391C94.3545 103.391 94.056 102.224 93.061 102.177C92.663 102.13 91.7675 102.224 91.0213 102.317Z" fill="black"/>
<path d="M85.947 103.204C85.6485 103.952 86.3947 105.259 87.1409 105.259C87.3399 105.259 87.3897 104.745 87.2404 104.092C87.1409 103.391 87.2404 102.924 87.5887 102.924C87.8872 102.924 88.1359 103.344 88.1359 103.811C88.1359 104.325 88.3847 104.886 88.6334 105.026C88.9319 105.213 89.1309 104.699 89.1309 103.905C89.1309 102.644 88.9817 102.457 87.6882 102.457C86.8425 102.457 86.146 102.737 85.947 103.204Z" fill="black"/>
<path d="M54.804 108.715C54.804 108.809 55.202 109.182 55.6995 109.509C56.4457 110.116 56.4955 110.069 55.8487 109.322C55.202 108.575 54.804 108.342 54.804 108.715Z" fill="black"/>
<path d="M58.2864 111.657C58.2864 111.891 58.7342 112.498 59.2814 112.965C59.8287 113.432 60.2764 113.619 60.2764 113.339C60.2764 113.105 59.8287 112.498 59.2814 112.031C58.7342 111.564 58.2864 111.377 58.2864 111.657Z" fill="black"/>
<path d="M38.6356 119.737C38.4863 120.017 38.6853 120.064 39.0833 119.923C39.9788 119.597 40.128 119.27 39.4315 119.27C39.133 119.27 38.7848 119.456 38.6356 119.737Z" fill="black"/>
</svg>
